# xmcd CD database file
#
# Track frame offsets:
#	150
#	18192
#	35980
#	54105
#
# Disc length: 953 seconds
#
# Revision: 2
# Processed by: cddbd v1.5.1PL2 Copyright (c) Steve Scherf et al.
# Submitted via: CDex 1.51
#
DISCID=2803b704
DTITLE=黒木マリナ／まいめろでぃーず - くるくるシャッフル!OP／ED
DYEAR=1900
DGENRE=Misc
TTITLE0=コイ・クル
TTITLE1=ハレ☆ソラ
TTITLE2=コイ・クル(オリジナルカラオケ）
TTITLE3=ハレ☆ソラ(オリジナルカラオケ）
EXTD=
EXTT0=
EXTT1=
EXTT2=
EXTT3=
PLAYORDER=
